<?xml version="1.0" encoding="UTF-8" ?>
<!DOCTYPE svg PUBLIC "-//W3C//DTD SVG 1.1//EN" "http://www.w3.org/Graphics/SVG/1.1/DTD/svg11.dtd">
<svg width="1000pt" height="343pt" viewBox="0 0 1000 343" version="1.1" xmlns="http://www.w3.org/2000/svg">
<g id="#e6b17eff">
<path fill="#e6b17e" opacity="1.00" d=" M 690.21 0.00 L 694.80 0.00 C 731.07 19.73 767.10 39.88 803.33 59.68 C 805.79 61.04 808.66 62.57 809.42 65.54 C 810.37 68.37 808.90 71.17 807.64 73.64 C 803.84 80.87 800.09 88.13 796.39 95.41 C 795.16 97.83 793.63 100.52 790.81 101.27 C 786.32 102.58 782.43 99.13 778.58 97.43 C 771.67 110.65 764.86 123.93 757.99 137.17 C 836.59 178.51 915.16 219.91 993.75 261.27 C 995.85 262.40 997.91 264.05 998.48 266.49 C 999.28 269.09 998.03 271.66 996.92 273.95 C 992.77 282.16 988.64 290.38 984.58 298.64 C 983.22 301.37 981.70 304.61 978.46 305.43 C 974.07 306.60 970.31 303.24 966.61 301.46 C 890.23 259.92 813.81 218.47 737.41 176.97 C 730.59 190.18 723.75 203.37 716.93 216.59 C 719.99 218.28 723.51 219.46 725.96 222.06 C 728.15 224.64 727.80 228.37 726.20 231.15 C 721.85 239.50 717.58 247.91 713.18 256.24 C 711.75 259.19 708.37 261.25 705.07 260.44 C 701.35 259.34 698.07 257.17 694.62 255.46 C 659.90 237.45 625.11 219.58 590.42 201.52 C 586.73 199.75 585.23 194.90 587.28 191.36 C 591.65 182.74 596.13 174.15 600.59 165.57 C 601.99 162.56 605.32 160.38 608.70 161.11 C 611.86 161.96 614.65 163.78 617.58 165.20 C 638.07 125.55 658.56 85.90 679.09 46.26 C 676.15 44.50 672.25 43.28 671.06 39.71 C 669.94 36.91 671.33 34.05 672.57 31.56 C 675.83 25.15 679.04 18.71 682.25 12.27 C 684.48 7.93 686.16 3.05 690.21 0.00 M 696.21 17.72 C 693.47 23.15 690.77 28.60 688.05 34.04 C 701.76 40.35 714.95 47.74 728.45 54.51 C 747.41 64.43 766.58 73.98 785.42 84.14 C 787.71 79.67 790.03 75.20 792.34 70.73 C 760.33 53.01 728.26 35.38 696.21 17.72 M 692.29 53.06 C 671.88 92.71 651.35 132.29 630.89 171.90 C 655.16 184.48 679.43 197.08 703.76 209.55 C 724.25 169.92 744.79 130.32 765.22 90.66 C 740.89 78.17 716.61 65.58 692.29 53.06 M 751.92 150.84 C 749.61 155.28 747.33 159.73 745.02 164.16 C 821.09 205.42 897.12 246.75 973.17 288.04 C 975.91 282.59 978.62 277.13 981.37 271.68 C 904.93 231.32 828.41 191.09 751.92 150.84 M 603.86 191.74 C 636.99 208.84 670.09 225.98 703.20 243.11 C 705.51 238.70 707.78 234.28 710.06 229.87 C 696.03 223.02 682.30 215.60 668.39 208.51 C 649.18 198.48 629.80 188.77 610.74 178.47 C 608.40 182.87 606.12 187.30 603.86 191.74 Z" />
<path fill="#e6b17e" opacity="1.00" d=" M 484.61 80.47 C 490.76 79.44 496.72 76.27 503.09 77.33 C 502.94 81.64 498.65 83.60 495.28 85.20 C 489.36 87.72 483.20 89.81 476.83 90.81 C 469.71 91.88 463.05 88.17 456.01 88.07 C 452.56 88.37 449.78 90.73 446.67 92.01 C 445.75 87.77 448.78 84.29 451.71 81.70 C 453.79 79.92 456.20 78.13 459.04 78.01 C 467.65 77.91 475.96 82.26 484.61 80.47 Z" />
<path fill="#e6b17e" opacity="1.00" d=" M 202.38 113.88 C 208.90 108.94 214.98 103.23 222.38 99.58 C 222.84 103.74 222.16 107.89 221.90 112.04 C 220.07 136.23 218.11 160.40 216.37 184.60 C 216.14 187.23 215.64 190.21 213.06 191.59 C 209.40 184.98 209.58 177.18 208.66 169.89 C 206.80 151.20 204.42 132.56 202.38 113.88 Z" />
<path fill="#e6b17e" opacity="1.00" d=" M 462.31 113.76 C 468.87 108.82 474.92 103.00 482.42 99.49 C 482.81 103.65 482.16 107.80 481.89 111.95 C 480.03 136.22 478.05 160.47 476.29 184.75 C 476.05 186.76 475.72 188.85 474.62 190.60 C 472.86 191.76 471.42 189.34 471.30 187.80 C 467.85 163.18 465.07 138.47 462.31 113.76 Z" />
<path fill="#e6b17e" opacity="1.00" d=" M 416.01 129.06 C 423.34 126.01 432.52 125.98 438.98 131.05 C 443.94 134.58 446.98 140.52 446.69 146.65 C 435.93 145.42 424.96 140.90 414.15 144.22 C 407.08 146.61 399.20 152.32 400.04 160.71 C 410.09 163.61 420.62 164.31 430.87 166.22 C 435.37 167.16 440.22 169.28 442.18 173.75 C 444.45 179.13 443.58 185.23 442.47 190.79 C 440.53 199.63 434.30 207.18 426.31 211.30 C 414.88 217.27 401.71 218.52 389.02 218.96 C 377.41 219.20 365.21 218.71 354.67 213.33 C 347.86 209.89 342.73 203.33 341.34 195.80 C 339.52 186.82 341.81 177.74 343.87 169.01 C 345.04 164.77 346.03 160.24 348.77 156.69 C 349.64 155.36 351.30 155.57 352.67 155.64 C 353.20 163.62 348.37 171.02 349.78 179.04 C 350.54 185.57 354.93 191.28 360.73 194.22 C 370.00 199.06 380.75 199.53 390.99 199.91 C 403.29 199.97 415.81 200.00 427.80 196.87 C 432.57 195.61 438.30 192.87 438.28 187.11 C 435.95 185.77 433.44 184.75 430.77 184.42 C 422.14 183.20 413.40 182.90 404.83 181.28 C 400.72 180.33 396.31 178.80 393.71 175.28 C 391.49 172.22 392.16 168.21 392.99 164.80 C 394.78 157.88 397.79 151.35 400.86 144.92 C 404.05 138.24 409.02 131.99 416.01 129.06 Z" />
<path fill="#e6b17e" opacity="1.00" d=" M 261.45 132.70 C 267.79 135.07 272.69 139.93 277.57 144.42 C 286.11 152.68 293.25 163.67 293.00 175.96 C 292.89 184.32 291.57 193.99 284.53 199.48 C 277.46 204.54 268.32 204.99 259.93 205.01 C 253.54 204.83 246.44 204.01 241.62 199.36 C 238.05 195.95 237.39 190.66 237.86 185.97 C 238.35 180.98 238.79 175.78 241.31 171.31 C 244.50 173.09 244.68 176.89 245.98 179.91 C 247.43 182.51 250.76 182.83 253.40 183.31 C 263.94 184.51 275.12 184.34 284.96 179.99 C 289.00 178.33 286.11 173.99 284.01 171.98 C 277.61 165.59 270.36 159.86 262.30 155.73 C 259.71 154.04 256.84 155.29 254.11 155.71 C 252.35 154.61 253.41 152.39 253.68 150.80 C 255.59 144.51 258.21 138.42 261.45 132.70 Z" />
<path fill="#e6b17e" opacity="1.00" d=" M 150.35 152.33 C 153.21 147.30 157.69 141.99 163.98 141.98 C 170.07 141.77 174.93 146.48 177.52 151.57 C 183.17 162.78 184.98 175.70 183.75 188.11 C 182.51 199.36 179.22 210.33 174.65 220.66 C 171.87 226.32 168.24 232.64 161.83 234.63 C 157.27 235.49 152.59 234.75 148.01 234.51 C 142.12 233.84 135.95 233.74 130.54 231.07 C 134.29 227.96 138.88 226.24 143.26 224.25 C 153.15 219.80 162.59 213.98 170.17 206.16 C 173.99 202.25 176.81 197.28 177.34 191.77 C 168.36 191.76 159.02 192.69 150.41 189.51 C 146.36 188.08 142.66 184.60 142.57 180.06 C 142.36 170.31 145.69 160.78 150.35 152.33 M 151.26 166.21 C 150.52 168.47 152.96 169.85 154.76 170.37 C 161.01 172.25 167.63 172.15 174.09 172.26 C 171.52 167.37 168.23 162.04 162.58 160.45 C 158.13 158.97 152.50 161.60 151.26 166.21 Z" />
<path fill="#e6b17e" opacity="1.00" d=" M 116.38 158.27 C 117.53 158.02 118.21 159.35 119.04 159.93 C 125.56 166.24 129.13 175.08 130.08 184.01 C 131.87 197.73 127.70 211.47 121.60 223.63 C 118.71 229.14 114.09 235.50 107.10 235.02 C 97.86 234.55 88.17 234.67 79.52 230.96 C 91.99 222.01 107.00 216.86 118.42 206.41 C 122.13 202.84 126.09 197.06 123.06 191.91 C 118.95 185.06 112.65 179.92 106.76 174.68 C 109.46 168.95 112.00 162.95 116.38 158.27 Z" />
<path fill="#e6b17e" opacity="1.00" d=" M 398.24 268.45 C 399.69 267.30 401.16 266.17 402.65 265.07 C 402.84 271.39 402.73 277.72 402.76 284.04 C 402.91 286.77 401.69 289.27 400.39 291.58 C 399.39 283.90 398.86 276.17 398.24 268.45 Z" />
<path fill="#e6b17e" opacity="1.00" d=" M 469.39 268.89 C 470.46 267.26 472.21 266.24 473.65 264.97 C 473.83 271.66 473.75 278.36 473.74 285.06 C 473.82 287.43 472.60 289.53 471.52 291.54 C 470.49 284.02 470.01 276.44 469.39 268.89 Z" />
<path fill="#e6b17e" opacity="1.00" d=" M 281.87 270.62 C 286.37 268.71 291.01 267.12 295.67 265.62 C 295.32 267.20 294.99 268.80 294.62 270.38 C 291.07 271.48 287.54 272.65 284.06 273.95 C 287.77 277.21 290.59 281.43 294.62 284.31 C 297.21 285.17 300.09 284.76 302.78 284.63 C 305.27 284.44 305.44 281.39 306.63 279.72 C 307.59 281.29 308.14 283.21 309.56 284.47 C 312.17 285.10 314.89 284.66 317.53 284.54 C 316.72 283.03 315.82 281.56 314.90 280.11 C 315.94 278.77 317.02 277.47 318.11 276.17 C 320.79 280.04 321.34 286.17 317.36 289.36 C 313.94 290.97 309.63 290.49 306.84 287.84 C 303.56 290.41 299.15 290.80 295.19 289.87 C 292.57 288.87 290.79 286.55 288.89 284.60 C 287.78 286.73 286.56 289.40 283.82 289.66 C 278.41 290.56 272.71 291.09 267.35 289.62 C 262.04 288.01 262.05 279.94 266.30 277.12 C 266.64 279.84 265.23 284.35 269.17 284.90 C 274.94 285.39 281.01 285.90 286.62 284.08 C 285.13 280.74 282.48 278.21 279.66 276.00 C 280.38 274.25 279.76 271.43 281.87 270.62 Z" />
<path fill="#e6b17e" opacity="1.00" d=" M 369.02 271.05 C 374.01 269.04 379.04 267.13 384.18 265.54 C 383.68 267.17 383.44 268.92 382.56 270.40 C 379.20 271.67 375.73 272.64 372.38 273.96 C 375.35 276.88 378.18 279.93 381.08 282.93 C 383.42 285.66 387.35 284.74 390.50 284.57 C 391.48 279.34 389.91 273.86 389.14 268.63 C 390.36 267.49 391.56 266.33 392.81 265.20 C 393.37 267.27 394.97 269.30 394.36 271.52 C 392.94 276.67 395.06 282.16 393.37 287.27 C 392.06 290.53 387.96 290.42 385.03 290.18 C 381.63 289.89 379.58 286.84 377.32 284.68 C 376.27 286.42 375.63 288.81 373.46 289.48 C 369.30 290.58 364.21 291.07 360.85 287.84 C 357.83 290.29 353.90 290.56 350.21 289.95 C 349.85 293.76 348.64 298.27 344.82 299.97 C 342.06 300.14 339.33 299.54 336.66 298.94 C 340.89 296.62 345.50 294.35 348.05 290.04 C 346.81 288.32 345.49 286.66 344.09 285.07 C 344.78 283.61 345.57 282.19 346.26 280.73 C 347.64 282.00 348.89 283.45 350.49 284.45 C 352.52 285.02 354.69 284.82 356.77 284.65 C 359.26 284.42 359.51 281.41 360.70 279.71 C 361.58 281.35 362.44 283.01 363.40 284.62 C 366.81 284.73 370.27 285.05 373.65 284.40 C 373.90 284.10 374.40 283.49 374.65 283.18 C 373.05 280.30 370.54 278.11 368.06 276.02 C 368.38 274.36 368.69 272.70 369.02 271.05 Z" />
<path fill="#e6b17e" opacity="1.00" d=" M 317.29 268.06 C 318.22 269.05 319.16 270.03 320.10 271.01 C 319.15 271.97 318.20 272.93 317.26 273.89 C 316.30 272.93 315.35 271.96 314.41 271.00 C 315.36 270.02 316.32 269.04 317.29 268.06 Z" />
<path fill="#e6b17e" opacity="1.00" d=" M 590.75 270.68 C 592.56 268.67 595.40 268.41 597.94 268.45 C 636.93 268.51 675.92 268.43 714.91 268.49 C 718.75 268.22 722.55 271.22 722.71 275.16 C 723.06 282.98 722.70 290.82 722.86 298.65 C 733.56 299.85 744.39 304.09 751.41 312.57 C 756.82 319.05 760.17 327.44 760.06 335.93 C 760.08 339.47 757.15 342.10 753.95 343.00 L 556.35 343.00 C 553.97 341.28 551.27 339.15 551.38 335.88 C 551.30 326.34 555.47 316.91 562.23 310.22 C 569.22 303.23 578.97 299.81 588.62 298.63 C 588.62 291.72 588.59 284.82 588.59 277.92 C 588.57 275.38 588.77 272.53 590.75 270.68 M 603.55 283.32 C 603.48 288.23 603.53 293.15 603.53 298.07 C 638.33 298.08 673.13 298.07 707.93 298.07 C 707.93 293.15 707.93 288.24 707.93 283.33 C 673.13 283.33 638.34 283.35 603.55 283.32 M 581.42 315.51 C 575.32 317.57 570.45 322.32 567.76 328.11 C 626.39 328.15 685.01 328.17 743.64 328.10 C 739.62 318.42 729.04 313.60 719.05 313.33 C 681.37 313.39 643.68 313.34 606.00 313.36 C 597.79 313.51 589.26 312.42 581.42 315.51 Z" />
<path fill="#e6b17e" opacity="1.00" d=" M 356.76 272.05 C 357.68 272.94 358.66 273.75 359.58 274.66 C 358.63 275.53 357.69 276.39 356.75 277.26 C 356.14 276.60 354.92 275.28 354.31 274.62 C 355.12 273.76 355.94 272.90 356.76 272.05 Z" />
<path fill="#e6b17e" opacity="1.00" d=" M 362.21 272.11 C 363.09 272.96 363.97 273.81 364.86 274.66 C 364.04 275.54 363.23 276.43 362.42 277.32 C 361.47 276.52 360.55 275.70 359.62 274.90 C 360.47 273.96 361.34 273.03 362.21 272.11 Z" />
<path fill="#e6b17e" opacity="1.00" d=" M 483.29 272.18 C 487.59 275.14 492.46 279.89 490.72 285.66 C 489.34 290.33 483.31 290.56 479.38 289.67 C 476.01 288.26 476.97 283.96 477.71 281.23 C 478.82 282.49 479.91 283.77 480.97 285.09 C 483.72 285.08 486.61 285.12 489.02 283.55 C 487.09 280.91 484.55 278.84 481.73 277.22 C 482.21 275.53 482.78 273.86 483.29 272.18 Z" />
<path fill="#e6b17e" opacity="1.00" d=" M 427.65 278.70 C 429.06 276.93 431.51 276.20 433.64 277.01 C 435.24 277.94 435.62 279.95 436.47 281.46 C 434.01 281.34 431.32 280.47 429.07 281.88 C 427.96 282.74 427.25 284.01 426.41 285.11 C 429.01 286.16 431.94 286.29 434.43 287.63 C 435.83 291.05 434.94 295.65 431.67 297.68 C 428.24 299.85 423.99 299.91 420.08 299.73 C 417.35 299.59 414.39 298.33 413.33 295.63 C 411.77 291.41 413.29 286.54 416.20 283.27 C 416.92 285.84 415.76 288.35 415.77 290.92 C 416.07 293.14 418.29 294.35 420.32 294.59 C 424.77 295.10 429.70 294.79 433.32 291.84 C 430.43 290.45 426.44 291.22 424.23 288.62 C 423.19 284.97 425.31 281.36 427.65 278.70 Z" />
<path fill="#e6b17e" opacity="1.00" d=" M 324.82 285.88 C 324.91 282.26 327.17 276.37 331.80 277.94 C 335.83 280.51 335.31 285.93 335.26 290.09 C 335.43 293.71 333.11 296.68 330.91 299.30 C 327.96 299.29 325.03 298.95 322.16 298.30 C 326.28 295.93 330.54 293.50 333.28 289.48 C 330.33 289.02 325.05 290.25 324.82 285.88 M 327.99 281.49 C 328.07 282.28 328.21 283.87 328.29 284.67 C 329.58 284.46 330.87 284.26 332.16 284.05 C 330.79 283.16 329.42 282.27 327.99 281.49 Z" />
<path fill="#e6b17e" opacity="1.00" d=" M 455.56 285.91 C 455.61 282.26 458.04 276.14 462.69 278.05 C 466.31 280.38 466.09 285.25 466.04 289.04 C 466.22 292.94 464.47 297.33 460.92 299.23 C 458.18 299.43 455.46 298.81 452.81 298.23 C 457.01 296.01 461.27 293.56 463.97 289.51 C 461.02 289.02 455.87 290.23 455.56 285.91 M 458.74 281.73 C 458.70 282.39 458.60 283.71 458.55 284.37 C 459.90 284.40 461.25 284.39 462.61 284.34 C 461.69 282.98 460.33 282.09 458.74 281.73 Z" />
<path fill="#e6b17e" opacity="1.00" d=" M 444.78 284.12 C 445.54 282.60 446.32 281.08 447.11 279.57 C 450.79 283.32 452.22 289.10 449.96 293.98 C 448.83 296.32 447.20 299.72 444.09 299.28 C 441.86 299.23 439.67 298.74 437.50 298.26 C 441.68 295.87 446.56 293.73 448.64 289.04 C 447.42 287.34 446.14 285.70 444.78 284.12 Z" />
<path fill="#e6b17e" opacity="1.00" d=" M 308.34 293.13 C 309.16 293.98 309.99 294.83 310.83 295.67 C 310.02 296.56 309.22 297.46 308.43 298.36 C 307.50 297.55 306.59 296.72 305.68 295.89 C 304.75 296.73 303.75 297.47 302.81 298.28 C 302.20 297.63 300.98 296.33 300.37 295.68 C 301.28 294.88 302.14 294.03 302.96 293.15 C 303.86 294.01 304.75 294.88 305.64 295.76 C 306.53 294.88 307.43 294.00 308.34 293.13 Z" />
</g>
</svg>
